<svg width="832" height="136" viewBox="0 0 832 136" fill="none" xmlns="http://www.w3.org/2000/svg">
<path d="M35.456 111.28C29.1413 111.28 23.6373 109.616 18.944 106.288C14.336 102.96 10.7947 98.2667 8.32 92.208C5.84533 86.1493 4.608 79.1093 4.608 71.088C4.52267 64.176 5.12 58.3307 6.4 53.552C7.76533 48.688 9.55733 44.6773 11.776 41.52C13.9947 38.3627 16.4693 35.888 19.2 34.096C21.9307 32.304 24.6613 31.0667 27.392 30.384C30.208 29.7013 32.768 29.36 35.072 29.36C38.2293 29.36 41.3013 29.9573 44.288 31.152C47.36 32.2613 50.1333 33.7973 52.608 35.76C55.168 37.7227 57.1733 40.0693 58.624 42.8L52.352 47.792L51.328 48.688L50.816 47.92C50.9013 47.2373 50.7733 46.64 50.432 46.128C50.176 45.5307 49.5787 44.6773 48.64 43.568C47.36 42.1173 46.0373 40.9227 44.672 39.984C43.3067 39.0453 41.8133 38.3627 40.192 37.936C38.656 37.5093 36.9067 37.296 34.944 37.296C32.64 37.296 30.4213 37.6373 28.288 38.32C26.1547 38.9173 24.192 39.984 22.4 41.52C20.608 42.9707 19.0293 44.9333 17.664 47.408C16.2987 49.8827 15.232 52.912 14.464 56.496C13.7813 60.08 13.44 64.304 13.44 69.168C13.44 74.7147 13.952 79.6213 14.976 83.888C16 88.0693 17.4507 91.6107 19.328 94.512C21.2907 97.4133 23.5947 99.632 26.24 101.168C28.9707 102.619 32.0427 103.344 35.456 103.344C36.6507 103.344 37.888 103.259 39.168 103.088C40.5333 102.917 41.856 102.661 43.136 102.32C44.5013 101.893 45.824 101.381 47.104 100.784C48.384 100.101 49.536 99.3333 50.56 98.48V79.536H36.096V71.728H58.88V102.96C55.1253 105.691 51.2853 107.781 47.36 109.232C43.4347 110.597 39.4667 111.28 35.456 111.28ZM76.8 110V102.576H91.776V58.928H77.568V51.504H100.992V102.576H114.688V110H76.8ZM95.872 39.216C94.08 39.216 92.544 38.576 91.264 37.296C89.984 36.016 89.344 34.48 89.344 32.688C89.344 30.8107 89.9413 29.232 91.136 27.952C92.416 26.672 93.9947 26.032 95.872 26.032C97.664 26.032 99.2 26.7147 100.48 28.08C101.845 29.36 102.528 30.896 102.528 32.688C102.528 34.48 101.845 36.016 100.48 37.296C99.2 38.576 97.664 39.216 95.872 39.216ZM166.272 110.896C162.517 110.896 159.445 110.256 157.056 108.976C154.667 107.696 152.832 105.733 151.552 103.088C150.272 100.357 149.419 96.944 148.992 92.848C148.651 88.752 148.565 83.888 148.736 78.256L150.272 36.528L159.872 35.376L161.152 35.248L161.28 36.144C160.853 36.7413 160.469 37.3387 160.128 37.936C159.872 38.5333 159.659 39.5573 159.488 41.008L158.336 55.472L158.72 57.776L157.824 78.896C157.568 85.3813 157.739 90.416 158.336 94C158.933 97.4987 160 99.9307 161.536 101.296C163.072 102.576 165.12 103.216 167.68 103.216C170.496 103.216 172.971 102.661 175.104 101.552C177.323 100.443 179.627 99.0347 182.016 97.328L184.832 104.624C181.931 106.757 178.944 108.336 175.872 109.36C172.8 110.384 169.6 110.896 166.272 110.896ZM136.96 51.504H179.072V59.056H136.96V51.504ZM198.4 30.256H207.616H208.896V31.152C208.384 31.664 208.043 32.2187 207.872 32.816C207.787 33.4133 207.744 34.4373 207.744 35.888V64.304H238.976V30.256H248.192H249.472V31.152C248.96 31.664 248.619 32.2187 248.448 32.816C248.363 33.4133 248.32 34.4373 248.32 35.888V110H238.848V71.984H207.744V110H198.4V30.256ZM284.288 111.408C281.984 111.408 279.808 111.067 277.76 110.384C275.712 109.701 273.835 108.677 272.128 107.312C270.507 105.861 269.099 104.069 267.904 101.936C266.709 99.8027 265.771 97.2427 265.088 94.256C264.491 91.2693 264.192 87.8987 264.192 84.144L264.32 51.504H273.28V84.144C273.28 87.8133 273.621 90.928 274.304 93.488C274.987 96.048 275.925 98.096 277.12 99.632C278.4 101.168 279.851 102.277 281.472 102.96C283.093 103.643 284.8 103.984 286.592 103.984C288.64 103.984 290.603 103.6 292.48 102.832C294.357 101.979 296.021 100.741 297.472 99.12C299.008 97.4987 300.203 95.408 301.056 92.848C301.909 90.288 302.336 87.2587 302.336 83.76V51.504H311.296V100.912C311.296 102.448 311.339 103.984 311.424 105.52C311.595 106.971 311.979 108.464 312.576 110H303.744C303.317 108.976 303.019 107.995 302.848 107.056C302.677 106.032 302.549 105.008 302.464 103.984C302.464 102.96 302.464 101.979 302.464 101.04C301.525 102.661 300.416 104.112 299.136 105.392C297.856 106.672 296.405 107.781 294.784 108.72C293.248 109.573 291.584 110.213 289.792 110.64C288.085 111.152 286.251 111.408 284.288 111.408ZM354.048 111.408C351.659 111.408 349.397 111.024 347.264 110.256C345.131 109.573 343.168 108.549 341.376 107.184C339.669 105.819 338.133 104.197 336.768 102.32L333.568 110H327.68V24.88H336.896H338.176V25.776C337.664 26.288 337.323 26.8427 337.152 27.44C337.067 28.0373 337.024 29.0613 337.024 30.512V60.464C337.963 58.928 339.072 57.52 340.352 56.24C341.632 54.96 343.04 53.8507 344.576 52.912C346.112 51.9733 347.733 51.2907 349.44 50.864C351.147 50.352 352.811 50.096 354.432 50.096C358.016 50.096 361.259 50.736 364.16 52.016C367.147 53.2107 369.707 55.088 371.84 57.648C373.973 60.1227 375.595 63.2373 376.704 66.992C377.899 70.7467 378.496 75.1413 378.496 80.176C378.496 85.3813 377.813 89.9467 376.448 93.872C375.083 97.7973 373.205 101.083 370.816 103.728C368.512 106.288 365.909 108.208 363.008 109.488C360.107 110.768 357.12 111.408 354.048 111.408ZM352.896 103.216C354.944 103.216 356.907 102.832 358.784 102.064C360.747 101.296 362.496 100.059 364.032 98.352C365.568 96.56 366.763 94.2133 367.616 91.312C368.555 88.4107 369.024 84.8693 369.024 80.688C369.024 76.848 368.64 73.52 367.872 70.704C367.104 67.8027 365.995 65.4133 364.544 63.536C363.179 61.6587 361.515 60.2933 359.552 59.44C357.589 58.5013 355.456 58.032 353.152 58.032C349.995 58.032 347.179 59.0133 344.704 60.976C342.315 62.8533 340.437 65.5413 339.072 69.04C337.707 72.4533 337.024 76.4213 337.024 80.944C337.024 84.272 337.323 87.3013 337.92 90.032C338.517 92.7627 339.413 95.1093 340.608 97.072C341.888 99.0347 343.509 100.571 345.472 101.68C347.52 102.704 349.995 103.216 352.896 103.216ZM457.984 110V30.128H503.936V37.936H466.944V63.024H496.768V70.832H466.944V110H457.984ZM524.8 110V102.576H539.776V58.928H525.568V51.504H548.992V102.576H562.688V110H524.8ZM543.872 39.216C542.08 39.216 540.544 38.576 539.264 37.296C537.984 36.016 537.344 34.48 537.344 32.688C537.344 30.8107 537.941 29.232 539.136 27.952C540.416 26.672 541.995 26.032 543.872 26.032C545.664 26.032 547.2 26.7147 548.48 28.08C549.845 29.36 550.528 30.896 550.528 32.688C550.528 34.48 549.845 36.016 548.48 37.296C547.2 38.576 545.664 39.216 543.872 39.216ZM585.216 110V51.504H594.176V61.872C595.712 59.4827 597.504 57.4347 599.552 55.728C601.6 53.936 603.861 52.5707 606.336 51.632C608.811 50.608 611.371 50.096 614.016 50.096C617.259 50.096 620.16 50.9067 622.72 52.528C625.28 54.1493 627.328 56.752 628.864 60.336C630.4 63.92 631.168 68.656 631.168 74.544V110H622.208V74.8C622.208 70.704 621.739 67.4613 620.8 65.072C619.861 62.5973 618.581 60.848 616.96 59.824C615.339 58.7147 613.504 58.16 611.456 58.16C609.493 58.16 607.488 58.5867 605.44 59.44C603.477 60.2933 601.643 61.5307 599.936 63.152C598.229 64.688 596.821 66.5653 595.712 68.784C594.688 71.0027 594.176 73.52 594.176 76.336V110H585.216ZM669.952 111.28C666.965 111.28 664.021 110.64 661.12 109.36C658.304 108.08 655.701 106.16 653.312 103.6C651.008 101.04 649.173 97.7973 647.808 93.872C646.443 89.9467 645.76 85.3813 645.76 80.176C645.76 74.8 646.485 70.2347 647.936 66.48C649.387 62.64 651.307 59.5253 653.696 57.136C656.085 54.6613 658.731 52.8693 661.632 51.76C664.533 50.5653 667.477 49.968 670.464 49.968C673.195 49.968 675.627 50.3947 677.76 51.248C679.979 52.1013 681.899 53.296 683.52 54.832C685.227 56.2827 686.549 58.032 687.488 60.08V24.88H695.936H697.216V25.776C696.704 26.288 696.363 26.8427 696.192 27.44C696.107 28.0373 696.064 29.0613 696.064 30.512L696.192 100.912C696.192 102.448 696.235 103.984 696.32 105.52C696.491 106.971 696.875 108.464 697.472 110H688.384C687.957 108.976 687.659 107.952 687.488 106.928C687.317 105.904 687.189 104.923 687.104 103.984C687.104 102.96 687.104 101.936 687.104 100.912C685.909 102.96 684.459 104.795 682.752 106.416C681.045 107.952 679.125 109.147 676.992 110C674.859 110.853 672.512 111.28 669.952 111.28ZM671.36 103.216C674.176 103.216 676.565 102.661 678.528 101.552C680.491 100.357 682.069 98.736 683.264 96.688C684.459 94.5547 685.312 92.1227 685.824 89.392C686.421 86.576 686.72 83.5893 686.72 80.432C686.72 76.08 686.165 72.1973 685.056 68.784C683.947 65.2853 682.197 62.5547 679.808 60.592C677.419 58.544 674.347 57.52 670.592 57.52C668.032 57.52 665.728 58.032 663.68 59.056C661.717 59.9947 660.053 61.4027 658.688 63.28C657.408 65.1573 656.427 67.4187 655.744 70.064C655.061 72.624 654.72 75.5253 654.72 78.768C654.72 83.632 655.36 87.8987 656.64 91.568C657.92 95.2373 659.797 98.096 662.272 100.144C664.747 102.192 667.776 103.216 671.36 103.216ZM783.232 51.504H792.832L792.448 68.528L791.296 66.608C791.808 63.9627 792.704 61.616 793.984 59.568C795.264 57.52 796.8 55.8133 798.592 54.448C800.384 52.9973 802.347 51.9307 804.48 51.248C806.613 50.48 808.832 50.096 811.136 50.096C814.208 50.096 817.024 50.6507 819.584 51.76C822.229 52.784 824.576 54.3627 826.624 56.496L822.528 63.664L822.016 64.816L821.12 64.304C820.949 63.6213 820.693 62.9813 820.352 62.384C820.011 61.7867 819.285 61.0613 818.176 60.208C816.811 59.3547 815.531 58.8 814.336 58.544C813.227 58.2027 811.947 58.032 810.496 58.032C808.363 58.032 806.229 58.4587 804.096 59.312C801.963 60.08 800 61.3173 798.208 63.024C796.501 64.7307 795.136 66.9067 794.112 69.552C793.088 72.1973 792.576 75.3547 792.576 79.024V110.128H783.232V51.504Z" fill="#6E7681"/>
<path d="M755.134 104.647L760.673 99.1109L784.21 122.648L778.672 128.184L755.134 104.647Z" fill="#616161"/>
<path d="M737.167 112.5C754.472 112.5 768.5 98.4716 768.5 81.1667C768.5 63.8618 754.472 49.8333 737.167 49.8333C719.862 49.8333 705.833 63.8618 705.833 81.1667C705.833 98.4716 719.862 112.5 737.167 112.5Z" fill="#616161"/>
<path d="M761.548 111.208L767.084 105.669L784.114 122.699L778.576 128.237L761.548 111.208Z" fill="#37474F"/>
<path d="M737.167 106.625C751.227 106.625 762.625 95.2269 762.625 81.1667C762.625 67.1064 751.227 55.7083 737.167 55.7083C723.106 55.7083 711.708 67.1064 711.708 81.1667C711.708 95.2269 723.106 106.625 737.167 106.625Z" fill="#64B5F6"/>
<path d="M750.679 69.8083C747.35 65.8917 742.454 63.5417 737.167 63.5417C731.879 63.5417 726.983 65.8917 723.654 69.8083C722.871 70.5917 723.067 71.9625 723.85 72.55C724.633 73.3333 726.004 73.1375 726.592 72.3542C729.333 69.2208 733.054 67.4583 737.167 67.4583C741.279 67.4583 745 69.2208 747.742 72.3542C748.133 72.7458 748.721 73.1375 749.308 73.1375C749.7 73.1375 750.287 72.9417 750.483 72.7458C751.267 71.9625 751.267 70.5917 750.679 69.8083V69.8083Z" fill="#BBDEFB"/>
</svg>
