<svg width="164" height="164" viewBox="0 0 164 164" fill="none" xmlns="http://www.w3.org/2000/svg">
<path d="M99.6812 109.299L109.344 99.6403L150.408 140.705L140.746 150.364L99.6812 109.299Z" fill="#616161"/>
<path d="M68.3333 123C98.5249 123 123 98.5249 123 68.3333C123 38.1418 98.5249 13.6667 68.3333 13.6667C38.1418 13.6667 13.6667 38.1418 13.6667 68.3333C13.6667 98.5249 38.1418 123 68.3333 123Z" fill="#616161"/>
<path d="M110.871 120.745L120.53 111.083L150.241 140.794L140.579 150.456L110.871 120.745Z" fill="#37474F"/>
<path d="M68.3333 112.75C92.864 112.75 112.75 92.864 112.75 68.3333C112.75 43.8027 92.864 23.9167 68.3333 23.9167C43.8027 23.9167 23.9167 43.8027 23.9167 68.3333C23.9167 92.864 43.8027 112.75 68.3333 112.75Z" fill="#64B5F6"/>
<path d="M91.9083 48.5167C86.1 41.6833 77.5583 37.5833 68.3333 37.5833C59.1083 37.5833 50.5667 41.6833 44.7583 48.5167C43.3917 49.8833 43.7333 52.275 45.1 53.3C46.4667 54.6667 48.8583 54.325 49.8833 52.9583C54.6667 47.4917 61.1583 44.4167 68.3333 44.4167C75.5083 44.4167 82 47.4917 86.7833 52.9583C87.4667 53.6417 88.4917 54.325 89.5167 54.325C90.2 54.325 91.225 53.9833 91.5667 53.6417C92.9333 52.275 92.9333 49.8833 91.9083 48.5167V48.5167Z" fill="#BBDEFB"/>
</svg>
